<?xml version="1.0" standalone="no"?>
<!DOCTYPE svg PUBLIC "-//W3C//DTD SVG 20010904//EN"
 "http://www.w3.org/TR/2001/REC-SVG-20010904/DTD/svg10.dtd">
<svg version="1.0" xmlns="http://www.w3.org/2000/svg"
 width="150.000000pt" height="150.000000pt" viewBox="0 0 150.000000 150.000000"
 preserveAspectRatio="xMidYMid meet">
<metadata>
Created by potrace 1.14, written by Peter Selinger 2001-2017
</metadata>
<g transform="translate(0.000000,150.000000) scale(0.100000,-0.100000)"
fill="#000000" stroke="none">
<path d="M1347 1434 c-1 -1 -51 -5 -112 -8 -60 -3 -155 -9 -210 -12 l-100 -6
-92 -64 c-51 -35 -96 -64 -99 -64 -3 0 -39 20 -79 45 l-74 45 -290 -1 -290 0
15 -47 c8 -26 19 -60 25 -77 5 -16 9 -119 9 -228 0 -191 -1 -199 -25 -247
l-25 -50 25 -39 c23 -34 25 -46 20 -97 -3 -33 -8 -86 -10 -119 -2 -33 -7 -85
-10 -115 -2 -30 -7 -82 -10 -115 -2 -33 -7 -88 -10 -122 l-6 -63 151 0 150 0
-32 61 -32 62 -2 226 c-8 707 -6 786 13 786 10 0 59 -7 108 -14 50 -8 97 -15
105 -16 30 -4 135 -19 143 -21 4 -1 16 -2 27 -3 20 -1 20 -8 20 -299 l0 -297
135 -85 135 -85 0 -157 c0 -87 2 -158 5 -158 18 0 182 44 189 51 13 12 12 335
-2 351 -6 7 -70 51 -142 98 l-132 85 141 3 c102 2 141 6 142 15 0 6 1 88 1
181 0 152 3 174 24 227 18 48 20 59 8 59 -12 0 -131 -31 -216 -56 -16 -5 -18
-20 -18 -123 l0 -117 -45 0 -45 -1 0 153 0 152 68 45 67 46 90 -9 c50 -6 109
-12 133 -14 24 -2 46 -7 50 -10 3 -4 6 -230 7 -504 0 -490 0 -498 -22 -562
-13 -36 -23 -66 -23 -68 0 -1 12 0 28 2 69 11 172 28 189 31 10 2 30 4 46 4
36 1 34 11 -6 37 -25 16 -33 29 -34 50 0 16 -3 127 -7 248 l-7 218 45 52 c24
29 41 57 38 62 -4 6 -24 23 -44 38 l-38 28 0 243 c0 216 2 248 20 300 11 32
20 62 20 67 0 6 -95 8 -103 2z"/>
<path d="M331 1063 c12 -21 26 -42 31 -47 4 -6 8 -216 8 -468 l0 -458 125 0
c69 0 125 2 125 5 0 2 -12 24 -27 48 l-28 43 1 433 0 432 -29 25 c-26 22 -37
24 -129 24 l-100 0 23 -37z"/>
</g>
</svg>
